<?xml version="1.0" standalone="no"?>
<!DOCTYPE svg PUBLIC "-//W3C//DTD SVG 20010904//EN"
 "http://www.w3.org/TR/2001/REC-SVG-20010904/DTD/svg10.dtd">
<svg version="1.0" xmlns="http://www.w3.org/2000/svg"
 width="512.000000pt" height="512.000000pt" viewBox="0 0 512.000000 512.000000"
 preserveAspectRatio="xMidYMid meet">
<metadata>
Created by potrace 1.14, written by Peter Selinger 2001-2017
</metadata>
<g transform="translate(0.000000,512.000000) scale(0.100000,-0.100000)"
fill="#000000" stroke="none">
<path d="M1870 4670 l0 -150 265 0 265 0 0 -1653 c0 -1703 -3 -1880 -40 -2071
-52 -268 -176 -376 -419 -364 -113 6 -168 26 -234 87 -65 60 -126 216 -127
324 l0 27 -155 0 -155 0 2 -286 3 -286 80 -30 c110 -40 319 -94 445 -114 143
-23 473 -23 625 0 542 83 799 321 892 826 16 87 17 232 20 1818 l4 1722 229 0
230 0 0 150 0 150 -965 0 -965 0 0 -150z"/>
</g>
</svg>
